# xmcd
#
# Track frame offsets:
#	150
#	13501
#	25674
#	41089
#	54863
#	71462
#	86033
#	100946
#	112270
#	126323
#	133234
#	149034
#	161997
#	174750
#	185777
#	201300
#	217695
#	232448
#	241875
#	256248
#
# Disc length: 3593 seconds
#
# Revision: 0
# Processed by: cddbd v1.5.2PL0 Copyright (c) Steve Scherf et al.
# Submitted via: EasyCDDAExtractor 16.0.6.1
#
DISCID=2c0e0714
DTITLE=Συλλογικός δίσκος - Τραγούδια 45 στροφές-Μπιθικώτσης Γρηγόρης 4
DYEAR=2000
DGENRE=Λαϊκή
TTITLE0=Μπιθικώτσης Γρηγόρης-Στάμου Ρένα - Από γυναίκες μάτσο [1961, Γρ. Μπιθι
TTITLE0=κώτσης-Μπάμπης Μπακάλης]
TTITLE1=Μπιθικώτσης Γρηγόρης-Νάχη Ζωή - Καράβια ταξιδιάρικα [1962, Γιώργος Μητ
TTITLE1=σάκης]
TTITLE2=Μπιθικώτσης Γρηγόρης-Καρανικόλας Νίκος - Κομπαρσίτα [1962, Γρηγόρης Μπ
TTITLE2=ιθικώτσης]
TTITLE3=Μπιθικώτσης Γρηγόρης-Καλδάρας Απόστολος - Η καρότσα [1964, Απόστολος Κ
TTITLE3=αλδάρας]
TTITLE4=Μπιθικώτσης Γρηγόρης-Κούρτη Ρία - Έλα μιά νύχτα στην Αθήνα [1963, Γρ. 
TTITLE4=Μπιθικώτσης-Χρ. Κολοκοτρώνης]
TTITLE5=Μπιθικώτσης Γρηγόρης - Ο ξενητεμένος [1962, Γιώργος Μητσάκης]
TTITLE6=Μπιθικώτσης Γρηγόρης-Διονυσίου Στράτος - Ο κουμπάρος [1961, Γιάννης Πα
TTITLE6=παϊωάννου]
TTITLE7=Μπιθικώτσης Γρηγόρης-Γκίκα Βούλα - Ο Μιχάλης ο κουρέας [1969, Αντώνης 
TTITLE7=Ρεπάνης-Παναγιώτης Καμηλιέρης]
TTITLE8=Μπιθικώτσης Γρηγόρης - Τώρα πού 'ρχονται τα χιόνια [1966, Απόστολος Κα
TTITLE8=λδάρας]
TTITLE9=Μπιθικώτσης Γρηγόρης-Γκίκα Βούλα - Δεν σε νοιάζει [1966, Κώστας Καπλάν
TTITLE9=ης]
TTITLE10=Μπιθικώτσης Γρηγόρης-Μητσάκης Γιώργος - Τα παιδιά της ρόδας [1960, Γι
TTITLE10=ώργος Μητσάκης]
TTITLE11=Μπιθικώτσης Γρηγόρης-χορωδία - Πότε θα φανεί [1970, Γιώργος Κατσαρός-
TTITLE11=Πυθαγόρας]
TTITLE12=Μπιθικώτσης Γρηγόρης-Γκίκα Βούλα - Θα ζήσουμε και μεις [1965, Σταύρος
TTITLE12=Ξαρχάκος-Λευτέρης Παπαδόπουλος]
TTITLE13=Μπιθικώτσης Γρηγόρης - Δεκανέα-δεκανέα [1970, Γιώργος Κατσαρός-Πυθαγό
TTITLE13=ρας]
TTITLE14=Μπιθικώτσης Γρηγόρης - Δώσε ζωή απ' την ζωή σου [1971, Γρηγόρης Μπιθι
TTITLE14=κώτσης]
TTITLE15=Μπιθικώτσης Γρηγόρης-Μοσχολιού Βίκυ - Τέλος δεν έχει ο ουρανός [1966,
TTITLE15=Απόστολος Καλδάρας-Χρ. Αργυροπούλου]
TTITLE16=Μπιθικώτσης Γρηγόρης - Τα ναυάγια της ζωής [1970, Γιώργος Κατσαρός-Πυ
TTITLE16=θαγόρας]
TTITLE17=Μπιθικώτσης Γρηγόρης-Κλειδωνιάρης Αντώνης - Φως της αυγής [1965, Στ. 
TTITLE17=Ξαρχάκος-Βαγγ. Γκούφας/Βασ. Ανδρεόπουλος]
TTITLE18=Μπιθικώτσης Γρηγόρης-Γεωργούτη Βούλα - Έντεκα και τέταρτο [1968, Ζαχα
TTITLE18=ρίας Δελμούζος-Νίκος Δαλέζιος]
TTITLE19=Μπιθικώτσης Γρηγόρης-Χρυσάφη Άννα - Παίζει το μπαγλαμαδάκι [1967, Κώσ
TTITLE19=τας Καπλάνης]
EXTD=
EXTT0=
EXTT1=
EXTT2=
EXTT3=
EXTT4=
EXTT5=
EXTT6=
EXTT7=
EXTT8=
EXTT9=
EXTT10=
EXTT11=
EXTT12=
EXTT13=
EXTT14=
EXTT15=
EXTT16=
EXTT17=
EXTT18=
EXTT19=
PLAYORDER=
